<svg width="102" height="32" viewBox="0 0 102 32" fill="none" xmlns="http://www.w3.org/2000/svg">
<g clip-path="url(#clip0_1660_12204)">
<path fill-rule="evenodd" clip-rule="evenodd" d="M61.8544 23.8572C65.5154 23.8572 68.2839 21.5058 68.5816 18.0532H65.9028C65.5456 20.1367 63.9681 21.4168 61.8846 21.4168C59.3844 21.4168 57.3595 19.5407 57.3595 16.4452C57.3595 13.4092 59.2951 11.4748 61.8846 11.4748C63.9086 11.4748 65.4558 12.6358 65.8725 14.8384H68.5513C68.2834 11.356 65.4563 9.03436 61.8846 9.03436C57.7771 9.03436 54.6214 12.0406 54.6214 16.4754C54.6214 20.821 57.7171 23.8572 61.8544 23.8572Z" fill="white"/>
<path fill-rule="evenodd" clip-rule="evenodd" d="M74.2362 23.8576C75.7244 23.8576 77.034 23.2021 77.8079 22.1009V23.6786H80.3076V12.7251H77.7777V18.5896C77.7777 20.5243 76.6169 21.5358 75.0989 21.5358C73.7297 21.5358 72.8666 20.7324 72.8666 18.9465V12.7251H70.3366V19.6313C70.3366 22.3101 71.9443 23.8576 74.2362 23.8576Z" fill="white"/>
<path d="M85.0068 8.55713H82.4814V23.673H85.0068V8.55713Z" fill="white"/>
<path fill-rule="evenodd" clip-rule="evenodd" d="M90.5461 23.8274C92.1831 23.8274 93.5825 23.1436 94.2969 22.0125C94.5052 23.1138 95.3388 23.6786 96.6187 23.6786H97.9279V21.5951H97.5116C96.9163 21.5951 96.6187 21.3277 96.6187 20.7324V16.8921C96.6187 14.1241 94.9812 12.5472 91.975 12.5472C89.0879 12.5472 87.2427 13.9755 87.0046 16.2375H89.6241C89.7729 15.2256 90.5763 14.6307 91.9157 14.6307C93.3742 14.6307 94.1783 15.3751 94.1783 16.8038V17.1898H91.053C88.3147 17.1898 86.6174 18.5003 86.6174 20.5243C86.6174 22.459 88.2245 23.8274 90.5461 23.8274ZM89.1776 20.3755C89.1776 19.4826 89.9213 18.9466 91.3797 18.9466H94.1783V19.0954C94.1783 20.6729 92.8982 21.8335 91.1123 21.8335C89.892 21.8335 89.1776 21.2386 89.1776 20.3755Z" fill="white"/>
<path fill-rule="evenodd" clip-rule="evenodd" d="M25.65 4.29967L31.3783 0.989021L44.5299 8.58231V23.7689L31.3783 31.3622L25.65 28.0575C29.1398 25.2723 31.3783 20.9837 31.3783 16.1756C31.3783 11.3706 29.1398 7.08185 25.65 4.29967Z" fill="white"/>
<path fill-rule="evenodd" clip-rule="evenodd" d="M25.6546 28.0427C23.0572 30.1128 19.7698 31.3536 16.1955 31.3536C12.6211 31.3536 9.3337 30.1128 6.7363 28.0427C3.24727 25.2592 1.00665 20.9716 1.00665 16.1645C1.00665 11.3574 3.24727 7.06983 6.7363 4.28635C9.3337 2.21619 12.6211 0.975708 16.1955 0.975708C19.7698 0.975708 23.0572 2.21619 25.6546 4.28635L18.2268 8.57405V23.7553L25.6546 28.0427Z" fill="white"/>
</g>
<defs>
<clipPath id="clip0_1660_12204">
<rect width="97" height="30.5423" fill="white" transform="translate(1 1)"/>
</clipPath>
</defs>
</svg>
