<svg width="122" height="20" viewBox="0 0 122 20" fill="none" xmlns="http://www.w3.org/2000/svg">
<path d="M3.18502 13.4362C3.27898 14.5956 3.74874 15.5306 4.59433 16.2412C5.4587 16.9331 6.57674 17.2791 7.94847 17.2791C9.15107 17.2791 10.1188 17.0266 10.8516 16.5217C11.6033 15.9981 11.9791 15.2782 11.9791 14.3619C11.9791 13.7073 11.7724 13.1931 11.359 12.8191C10.9644 12.4264 10.4194 12.1272 9.72419 11.9215C9.02893 11.7158 8.05181 11.5007 6.79284 11.2763C5.51507 11.0519 4.41581 10.762 3.49507 10.4067C2.59312 10.0327 1.85088 9.47172 1.26837 8.7237C0.704651 7.97569 0.422791 6.99392 0.422791 5.7784C0.422791 4.65638 0.714047 3.65591 1.29656 2.777C1.89786 1.89808 2.72465 1.21552 3.77693 0.729312C4.848 0.243104 6.0694 0 7.44112 0C8.85042 0 10.1094 0.261805 11.218 0.785414C12.3267 1.30902 13.2005 2.02899 13.8394 2.9453C14.4782 3.86162 14.8259 4.90884 14.8822 6.08696H11.6972C11.5845 5.07714 11.1429 4.26367 10.3725 3.64656C9.60205 3.02945 8.62493 2.7209 7.44112 2.7209C6.29488 2.7209 5.37414 2.97335 4.67888 3.47826C4.00242 3.96447 3.66419 4.65638 3.66419 5.554C3.66419 6.18981 3.86149 6.69472 4.25609 7.06872C4.66949 7.44273 5.21442 7.72323 5.89088 7.91024C6.56735 8.09724 7.53507 8.30294 8.79405 8.52735C10.0718 8.75175 11.1711 9.05096 12.0918 9.42496C13.0126 9.79897 13.7642 10.3506 14.3467 11.0799C14.9292 11.8093 15.2205 12.7723 15.2205 13.9691C15.2205 15.1286 14.9104 16.1664 14.2903 17.0827C13.6702 17.9991 12.8059 18.719 11.6972 19.2426C10.5886 19.7475 9.32958 20 7.92028 20C6.36065 20 4.98893 19.7195 3.80512 19.1585C2.6213 18.5975 1.69116 17.8214 1.0147 16.8303C0.357023 15.8205 0.0187907 14.6704 0 13.3801L3.18502 13.4362Z" fill="white"/>
<path d="M29.8838 5.46985V19.8317H27.2061L26.8679 18.0084C25.778 19.3361 24.2936 20 22.4145 20C20.7233 20 19.3516 19.4764 18.2993 18.4292C17.2471 17.382 16.7209 15.6989 16.7209 13.3801V5.46985H19.765V13.0715C19.765 14.4741 20.0469 15.54 20.6106 16.2693C21.1743 16.9986 22.0105 17.3633 23.1192 17.3633C24.2842 17.3633 25.1955 16.9425 25.8532 16.101C26.5109 15.2408 26.8397 14.072 26.8397 12.5947V5.46985H29.8838Z" fill="white"/>
<path d="M48.7242 5.30154C50.3026 5.30154 51.5898 5.8158 52.5857 6.84432C53.5816 7.85414 54.0796 9.48107 54.0796 11.7251V19.8317H51.0355V11.7532C51.0355 10.5002 50.7818 9.54652 50.2744 8.89201C49.7671 8.23749 49.0155 7.91024 48.0196 7.91024C46.9673 7.91024 46.1311 8.28424 45.511 9.03226C44.9097 9.76157 44.609 10.7714 44.609 12.0617V19.8317H41.5368V11.7532C41.5368 10.4815 41.2737 9.52782 40.7476 8.89201C40.2402 8.23749 39.4886 7.91024 38.4927 7.91024C37.4592 7.91024 36.6324 8.2936 36.0123 9.06031C35.411 9.82702 35.1103 10.8555 35.1103 12.1459V19.8317H32.0663V5.46985H34.7157L35.054 7.34923C36.0875 6.00281 37.4968 5.32024 39.2819 5.30154C40.2966 5.30154 41.1891 5.5166 41.9596 5.9467C42.73 6.37681 43.3219 7.03132 43.7353 7.91024C44.2426 7.08742 44.9097 6.45161 45.7365 6.0028C46.5633 5.5353 47.5592 5.30154 48.7242 5.30154Z" fill="white"/>
<path d="M72.6797 5.30154C74.2581 5.30154 75.5453 5.8158 76.5412 6.84432C77.5371 7.85414 78.0351 9.48107 78.0351 11.7251V19.8317H74.991V11.7532C74.991 10.5002 74.7373 9.54652 74.2299 8.89201C73.7226 8.23749 72.971 7.91024 71.9751 7.91024C70.9228 7.91024 70.0866 8.28424 69.4665 9.03226C68.8652 9.76157 68.5645 10.7714 68.5645 12.0617V19.8317H65.4923V11.7532C65.4923 10.4815 65.2292 9.52782 64.7031 8.89201C64.1957 8.23749 63.4441 7.91024 62.4482 7.91024C61.4147 7.91024 60.5879 8.2936 59.9678 9.06031C59.3665 9.82702 59.0658 10.8555 59.0658 12.1459V19.8317H56.0217V5.46985H58.6712L59.0095 7.34923C60.043 6.00281 61.4523 5.32024 63.2374 5.30154C64.2521 5.30154 65.1446 5.5166 65.915 5.9467C66.6855 6.37681 67.2774 7.03132 67.6908 7.91024C68.1981 7.08742 68.8652 6.45161 69.692 6.0028C70.5188 5.5353 71.5147 5.30154 72.6797 5.30154Z" fill="white"/>
<path d="M86.7983 20C85.3514 20 84.0642 19.7008 82.9368 19.1024C81.8281 18.4853 80.9638 17.6251 80.3437 16.5217C79.7424 15.3997 79.4417 14.1094 79.4417 12.6508C79.4417 11.2108 79.7424 9.93922 80.3437 8.8359C80.9638 7.71388 81.8281 6.84432 82.9368 6.22721C84.0642 5.6101 85.3514 5.30154 86.7983 5.30154C88.2452 5.30154 89.5229 5.6101 90.6316 6.22721C91.759 6.84432 92.6234 7.71388 93.2247 8.8359C93.8448 9.93922 94.1548 11.2108 94.1548 12.6508C94.1548 14.1094 93.8448 15.3997 93.2247 16.5217C92.6234 17.6251 91.759 18.4853 90.6316 19.1024C89.5229 19.7008 88.2452 20 86.7983 20ZM86.7983 17.4194C88.076 17.4194 89.1001 16.9799 89.8705 16.101C90.6598 15.2034 91.0544 14.0533 91.0544 12.6508C91.0544 11.2482 90.6598 10.1075 89.8705 9.22861C89.1001 8.33099 88.076 7.88219 86.7983 7.88219C85.5205 7.88219 84.4964 8.33099 83.726 9.22861C82.9556 10.1075 82.5704 11.2482 82.5704 12.6508C82.5704 14.0533 82.9556 15.2034 83.726 16.101C84.4964 16.9799 85.5205 17.4194 86.7983 17.4194Z" fill="white"/>
<path d="M103.395 5.30154C105.105 5.30154 106.496 5.82515 107.567 6.87237C108.657 7.91959 109.202 9.60262 109.202 11.9215V19.8317H106.129V12.0898C106.129 10.7246 105.838 9.68677 105.256 8.97616C104.673 8.26554 103.818 7.91024 102.691 7.91024C101.488 7.91024 100.539 8.331 99.844 9.17251C99.1675 9.99532 98.8293 11.136 98.8293 12.5947V19.8317H95.7852V5.46985H98.4347L98.7729 7.34923C99.8628 5.9841 101.404 5.30154 103.395 5.30154Z" fill="white"/>
<path d="M109.88 5.9467C109.88 4.84338 110.143 3.84292 110.669 2.9453C111.214 2.02899 111.947 1.30902 112.868 0.785414C113.788 0.261805 114.803 0 115.912 0C117.039 0 118.063 0.261805 118.984 0.785414C119.924 1.30902 120.656 2.01963 121.183 2.91725C121.728 3.81487 122 4.81533 122 5.91865C122 7.00327 121.728 7.99439 121.183 8.89201C120.656 9.78962 119.924 10.5002 118.984 11.0238C118.063 11.5288 117.039 11.7812 115.912 11.7812C114.803 11.7812 113.788 11.5288 112.868 11.0238C111.947 10.5002 111.214 9.79897 110.669 8.92005C110.143 8.02244 109.88 7.03132 109.88 5.9467ZM120.563 5.91865C120.563 5.03974 120.356 4.24497 119.942 3.53436C119.548 2.82375 118.993 2.27209 118.279 1.87938C117.584 1.46797 116.795 1.26227 115.912 1.26227C115.047 1.26227 114.258 1.46797 113.544 1.87938C112.849 2.27209 112.295 2.8331 111.881 3.56241C111.487 4.27302 111.289 5.06779 111.289 5.9467C111.289 6.80692 111.487 7.59233 111.881 8.30294C112.295 8.99486 112.849 9.54652 113.544 9.95792C114.258 10.3506 115.047 10.547 115.912 10.547C116.795 10.547 117.584 10.3506 118.279 9.95792C118.993 9.54652 119.548 8.98551 119.942 8.27489C120.356 7.56428 120.563 6.77887 120.563 5.91865ZM116.165 2.7209C116.936 2.7209 117.547 2.9079 117.998 3.28191C118.449 3.65591 118.674 4.16082 118.674 4.79663C118.674 5.22674 118.552 5.6101 118.308 5.9467C118.082 6.26461 117.753 6.49836 117.321 6.64797L118.73 9.11641H117.18L115.94 6.92847H115.038V9.11641H113.629V2.7209H116.165ZM115.038 5.7784H116.081C116.419 5.7784 116.692 5.69425 116.898 5.52595C117.105 5.33894 117.208 5.09584 117.208 4.79663C117.208 4.49743 117.105 4.27302 116.898 4.12342C116.71 3.95512 116.438 3.87097 116.081 3.87097H115.038V5.7784Z" fill="white"/>
</svg>
