<svg width="12" height="11" viewBox="0 0 12 11" fill="none" xmlns="http://www.w3.org/2000/svg">
<path d="M1 5.35451H0.4L0.4 5.95451H1L1 5.35451ZM11 5.35451L11.4364 5.76626C11.6547 5.53494 11.6545 5.17351 11.4361 4.94238L11 5.35451ZM7.18672 0.44627C6.95911 0.20544 6.57936 0.194724 6.33853 0.422336C6.0977 0.649949 6.08699 1.0297 6.3146 1.27053L7.18672 0.44627ZM6.31425 9.44665C6.08684 9.68767 6.09788 10.0674 6.33891 10.2948C6.57994 10.5222 6.95968 10.5112 7.18708 10.2702L6.31425 9.44665ZM0.4 1.13476L0.4 5.35451H1.6L1.6 1.13476H0.4ZM1 5.95451L11 5.95451V4.75451H1L1 5.95451ZM11.4361 4.94238L7.18672 0.44627L6.3146 1.27053L10.5639 5.76664L11.4361 4.94238ZM10.5636 4.94276L6.31425 9.44665L7.18708 10.2702L11.4364 5.76626L10.5636 4.94276Z" fill="#F8F5FF"/>
</svg>
