<svg width="95" height="34" viewBox="0 0 95 34" fill="none" xmlns="http://www.w3.org/2000/svg">
<path fill-rule="evenodd" clip-rule="evenodd" d="M47.6994 25.5952C47.6994 25.3774 47.7304 25.1326 47.7411 24.9048C34.5642 24.528 22.7161 24.5924 21.4618 24.5924C19.7345 24.5924 19.7345 26.4475 21.4618 26.4475C31.8501 26.4475 40.542 26.7537 47.8641 27.243C47.7621 26.6721 47.6994 26.1073 47.6994 25.5952Z" fill="white"/>
<path fill-rule="evenodd" clip-rule="evenodd" d="M58.0227 25.4206C57.8389 26.3202 57.5897 27.1518 57.2666 27.8804C82.9813 30.2637 86.3986 34.7631 87.3674 33.8889C88.0736 33.2495 88.129 31.1379 85.7887 29.0282C83.4605 27.0349 71.22 25.979 58.0227 25.4206Z" fill="white"/>
<path fill-rule="evenodd" clip-rule="evenodd" d="M13.705 2.57818C20.7191 3.79354 17.1317 10.7361 9.33575 11.9756C11.1699 8.15815 12.8702 4.51207 13.705 2.57818ZM14.5155 22.1667C12.3849 22.1667 10.0631 18.3711 9.14686 14.9252C20.6928 13.6613 25.3057 1.09025 12.789 0.0748253C12.3035 0 11.8182 0 11.4665 0H11.115C3.15664 0 0.647873 6.09896 2.58997 7.85925C4.12758 9.29869 5.85408 8.35589 5.17972 7.73614C4.10131 6.71871 5.69385 3.09897 10.0631 2.50336C8.87676 4.90994 7.06906 8.72723 5.31585 12.2987C2.58997 17.7777 0 23.0085 0 23.4788C0 24.1247 1.61881 25.2896 2.58997 25.2896C2.8073 25.2896 4.66798 21.6195 6.85347 17.1318C7.82441 20.9754 10.1706 25.2896 13.5161 25.2896C16.0533 25.2896 17.8612 22.5865 16.9693 21.769C16.2137 21.0501 16.3236 22.1667 14.5155 22.1667Z" fill="white"/>
<path fill-rule="evenodd" clip-rule="evenodd" d="M38.0071 7.94322C39.5314 6.40568 40.3311 6.15956 40.3311 5.16651C40.3311 4.27458 38.9066 3.65509 38.1821 3.87907C37.3578 4.12739 35.9578 6.18369 35.9578 7.3722C35.9578 7.99168 37.433 8.48791 38.0071 7.94322Z" fill="white"/>
<path fill-rule="evenodd" clip-rule="evenodd" d="M70.1235 12.2571C69.632 13.1309 69.1957 14.0795 68.8397 15.0021C68.1013 16.2759 66.7084 18.3463 65.478 18.3463C62.8839 18.3463 66.735 11.0603 69.2492 11.0603C70.0969 11.0603 70.1791 11.684 70.1235 12.2571ZM53.7797 27.9281C51.9219 27.9281 52.6315 23.9599 54.3802 19.1692C54.5715 19.7177 54.8721 20.2663 55.3636 20.7173C55.5818 24.086 54.7362 27.9281 53.7797 27.9281ZM25.6437 12.2571C25.152 13.1309 24.716 14.0795 24.3599 15.0021C23.6213 16.2759 22.2284 18.3463 20.9983 18.3463C18.4041 18.3463 22.255 11.0603 24.7694 11.0603C25.6169 11.0603 25.6992 11.684 25.6437 12.2571ZM64.6816 2.84988C65.418 2.84988 61.5666 7.31784 58.2606 10.66C60.6098 6.31818 63.124 2.84988 64.6816 2.84988ZM86.2228 2.82558C86.4431 2.82558 84.4473 7.66526 81.0856 9.93669C82.999 6.29388 85.2682 2.82558 86.2228 2.82558ZM93.9051 2.82558C94.1254 2.82558 92.1298 7.66526 88.768 9.93669C90.6813 6.29388 92.9485 2.82558 93.9051 2.82558ZM92.8687 13.3299C91.6381 13.3299 88.4144 18.9457 86.2272 18.271C85.2994 17.9969 86.2828 15.2276 87.867 11.8081C91.0107 10.9852 95 5.14581 95 2.42535C95 1.45199 93.4426 0.454536 92.5681 0.454536C89.6669 0.454536 84.1302 9.38666 82.6652 15.5734C81.3225 17.051 79.7706 18.6489 78.5447 18.271C77.6169 17.9969 78.6003 15.2276 80.1845 11.8081C83.3282 10.9852 87.3173 5.14581 87.3173 2.42535C87.3173 1.45199 85.7599 0.454536 84.8856 0.454536C81.9521 0.454536 76.3177 9.59049 74.9293 15.7823C73.9513 17.0775 72.8914 18.3463 71.928 18.3463C69.8499 18.3463 74.4131 11.2595 74.4131 10.3106C74.4131 9.28866 73.5942 8.98804 72.938 8.98804C72.5288 8.98804 71.9546 9.53847 71.2984 10.3859C71.1337 9.88789 70.6708 8.98804 69.4407 8.98804C66.2789 8.98804 63.3298 11.9513 62.0973 15.1816C60.8757 16.8299 59.4107 18.8706 58.0425 18.8706C57.6596 18.8706 57.3304 18.771 57.0034 18.6204C56.7565 17.3731 56.3738 16.3004 55.9109 15.6256C61.0195 10.9343 66.2655 5.61914 66.2655 2.69946C66.2655 1.82792 64.8172 0.803957 63.451 0.803957C60.7635 0.803957 55.2625 8.03416 51.9085 15.4784C50.8717 16.8617 49.7227 18.3218 48.6869 18.3218C46.8824 18.3218 50.4356 13.0556 50.4356 11.5844C50.4356 9.81279 48.6313 8.98804 47.5388 8.98804C45.8458 8.98804 44.533 10.1865 41.5561 14.8274C41.9097 14.053 42.348 13.2303 43.5762 10.8856C44.1794 9.88789 42.7309 9.01434 41.4737 9.01434C40.505 9.01434 38.8562 12.3463 37.836 15.068C36.7282 16.5512 35.4556 18.3218 34.3117 18.3218C32.2626 18.3218 37.3175 11.2838 37.3175 10.3369C37.3175 9.23785 36.0608 9.03884 35.4598 9.03884C34.8245 9.03884 32.9278 11.5272 31.6609 14.1838C30.4139 15.7369 28.831 18.3463 27.4483 18.3463C25.37 18.3463 29.9332 11.2595 29.9332 10.3106C29.9332 9.28866 29.1145 8.98804 28.4581 8.98804C28.0488 8.98804 27.4749 9.53847 26.8185 10.3859C26.6538 9.88789 26.1911 8.98804 24.9607 8.98804C20.8068 8.98804 17.009 14.1038 17.009 18.2202C17.009 20.2663 18.0479 21.4652 19.7145 21.4652C21.2452 21.4652 22.6379 20.2177 23.6501 19.0188C23.8126 20.0183 24.4424 21.4652 26.409 21.4652C27.8729 21.4652 29.326 20.3719 30.5229 18.9793C30.6899 19.9691 31.2926 21.4407 33.2994 21.4407C34.6266 21.4407 35.9438 20.535 37.0675 19.3255C37.3465 20.6878 38.1531 21.4652 39.3422 21.4652C39.725 21.4652 40.1345 21.3901 40.1611 21.1664C42.9756 14.429 46.2284 12.1818 46.5286 12.1818C47.2652 12.1818 44.8333 15.6501 44.8333 18.3218C44.8333 19.0696 45.1069 21.4652 47.6479 21.4652C48.4409 21.4652 49.2307 21.1398 49.9795 20.626C49.4377 22.4972 49.1074 24.2784 49.1074 25.8313C49.1074 27.6031 49.9527 30.6222 52.4934 30.6222C56.1023 30.6222 57.4127 25.807 57.3038 21.4895H57.5508C58.9891 21.4895 60.4185 20.4253 61.6045 19.062C61.8659 20.5665 62.7836 21.4652 64.1942 21.4652C65.725 21.4652 67.1176 20.2177 68.1301 19.0188C68.2926 20.0183 68.9222 21.4652 70.8888 21.4652C72.2416 21.4652 73.5832 20.5294 74.7247 19.2899C75.2428 21.5859 77.479 21.4407 77.479 21.4407C79.3491 21.5642 81.0489 20.5834 82.4051 19.2723C82.9166 21.5845 85.1615 21.4407 85.1615 21.4407C90.4634 21.7903 94.4527 13.3299 92.8687 13.3299Z" fill="white"/>
</svg>
