<svg width="127" height="22" viewBox="0 0 127 22" fill="none" xmlns="http://www.w3.org/2000/svg">
<path d="M124.793 2.46897V5.85374H127V8.08027H124.793V14.1276H126.881V16.3142C126.476 16.4025 126.062 16.4436 125.649 16.4368C123.482 16.4368 122.408 15.2722 122.408 12.943V2.46897H124.793Z" fill="white"/>
<path d="M117.906 7.34578V5.85234H120.29V16.1483H117.906V14.6567C117.568 15.656 116.356 16.3727 114.706 16.3727C114.037 16.3855 113.374 16.2558 112.758 15.9921C112.142 15.7283 111.587 15.3363 111.128 14.8411C110.173 13.8038 109.657 12.4232 109.696 11.0003C109.676 10.2985 109.791 9.59949 110.037 8.94365C110.283 8.28781 110.653 7.68821 111.128 7.17954C111.583 6.67758 112.137 6.27969 112.753 6.01209C113.37 5.74448 114.035 5.61325 114.706 5.62705C116.355 5.62796 117.568 6.34651 117.906 7.34578ZM117.193 13.2505C117.486 12.9594 117.717 12.6093 117.87 12.2226C118.023 11.8359 118.096 11.4209 118.084 11.004C118.091 10.5911 118.018 10.1809 117.867 9.79759C117.716 9.41428 117.492 9.0656 117.207 8.77208C116.923 8.47857 116.583 8.24616 116.209 8.08857C115.834 7.93099 115.433 7.85139 115.028 7.85448C114.632 7.84631 114.238 7.92201 113.873 8.0768C113.506 8.23159 113.175 8.46211 112.901 8.75382C112.623 9.05383 112.407 9.40685 112.264 9.79254C112.121 10.1782 112.053 10.589 112.066 11.0013C112.053 11.4134 112.121 11.824 112.264 12.2095C112.407 12.5951 112.623 12.948 112.901 13.2478C113.175 13.5394 113.506 13.77 113.873 13.9248C114.238 14.0796 114.632 14.1553 115.028 14.1471C115.43 14.1552 115.828 14.0798 116.2 13.9257C116.572 13.7715 116.908 13.5418 117.191 13.2505H117.193Z" fill="white"/>
<path d="M29.6378 16.1465V5.85233H32.0031V7.38483C32.2758 6.82704 32.7048 6.36434 33.2355 6.05532C33.7662 5.74629 34.3749 5.60484 34.9845 5.64885C35.2234 5.64553 35.462 5.66621 35.6969 5.71062V8.07977C35.3697 8.01244 35.0369 7.97836 34.7031 7.97803C34.341 7.94985 33.9772 8.00186 33.6366 8.1305C33.2961 8.25913 32.9868 8.46135 32.73 8.72329C32.4733 8.98524 32.275 9.30072 32.1489 9.64811C32.0228 9.99551 31.9718 10.3666 31.9995 10.736V16.1465H29.6378Z" fill="white"/>
<path d="M36.2965 11C36.283 10.2757 36.4174 9.55643 36.6913 8.88799C36.9651 8.21955 37.3722 7.61659 37.8869 7.11744C38.9345 6.10728 40.3214 5.54444 41.763 5.54444C43.2046 5.54444 44.5914 6.10728 45.639 7.11744C46.1537 7.61659 46.5609 8.21955 46.8348 8.88799C47.1086 9.55643 47.243 10.2757 47.2295 11C47.2429 11.7241 47.1084 12.4429 46.8346 13.1111C46.5607 13.7792 46.1536 14.3819 45.639 14.8808C44.5914 15.8909 43.2046 16.4538 41.763 16.4538C40.3214 16.4538 38.9345 15.8909 37.8869 14.8808C37.3721 14.3821 36.9648 13.7794 36.691 13.1113C36.4172 12.4432 36.2828 11.7241 36.2965 11ZM43.9657 13.3092C44.2579 13.0048 44.4873 12.6436 44.6402 12.2472C44.7932 11.8506 44.8667 11.4269 44.8562 11.001C44.8686 10.5777 44.7959 10.1564 44.6428 9.76289C44.4897 9.36936 44.2592 9.01195 43.9657 8.71262C43.6752 8.41486 43.3298 8.17858 42.9496 8.01735C42.5693 7.85613 42.1615 7.77313 41.7497 7.77313C41.3378 7.77313 40.93 7.85613 40.5497 8.01735C40.1694 8.17858 39.8241 8.41486 39.5335 8.71262C39.2461 9.01566 39.0207 9.3741 38.8705 9.76699C38.7204 10.1599 38.6485 10.5794 38.6591 11.001C38.641 11.8579 38.9553 12.6875 39.5335 13.3092C40.1266 13.8986 40.9218 14.2284 41.7497 14.2284C42.5775 14.2284 43.3727 13.8986 43.9657 13.3092Z" fill="white"/>
<path d="M57.1478 6.56843V9.02116C56.7421 8.61244 56.261 8.28996 55.7322 8.07242C55.2034 7.85489 54.6375 7.74663 54.0674 7.75392C53.6395 7.73962 53.2132 7.81323 52.8138 7.97038C52.4144 8.12754 52.0499 8.36501 51.7422 8.6687C51.4411 8.96765 51.2043 9.32727 51.0469 9.72467C50.8895 10.1221 50.8148 10.5485 50.8277 10.977C50.8148 11.4055 50.8895 11.8319 51.0469 12.2293C51.2043 12.6267 51.4411 12.9864 51.7422 13.2852C52.0491 13.5906 52.4129 13.8298 52.8122 13.9887C53.2116 14.1476 53.6381 14.2228 54.0665 14.21C54.6376 14.2206 55.2049 14.1133 55.7344 13.8948C56.2639 13.6763 56.7446 13.3509 57.1478 12.9383V15.391C56.2285 16.1143 55.0884 16.4834 53.9285 16.4329C53.2103 16.4537 52.4952 16.3271 51.8259 16.0604C51.1566 15.7937 50.5467 15.3924 50.0325 14.8805C49.5167 14.3782 49.1102 13.7709 48.8396 13.0978C48.5689 12.4249 48.4401 11.7013 48.4616 10.9743C48.4397 10.2471 48.5684 9.52346 48.839 8.85041C49.1097 8.17737 49.5163 7.57006 50.0325 7.06806C50.5467 6.55611 51.1566 6.15485 51.8259 5.88815C52.4952 5.62145 53.2103 5.49474 53.9285 5.51558C55.0885 5.47689 56.226 5.8489 57.1478 6.56843Z" fill="white"/>
<path d="M58.915 16.1498V2.46897H61.2786V10.245L64.6625 5.85283H67.3662L63.5689 10.7764L67.6832 16.1488H64.9003L61.2786 11.3888V16.1498H58.915Z" fill="white"/>
<path d="M67.7408 11.0004C67.7073 10.2827 67.8188 9.56555 68.0683 8.89358C68.3179 8.22161 68.7001 7.60916 69.1915 7.09423C69.6816 6.59754 70.2664 6.20885 70.9098 5.95227C71.5532 5.69568 72.2413 5.57667 72.9317 5.60262C73.5892 5.57554 74.2446 5.69495 74.8522 5.95256C75.4599 6.21016 76.0052 6.59976 76.4501 7.09423C76.903 7.58191 77.2572 8.15584 77.4925 8.78322C77.7279 9.41059 77.8396 10.0791 77.8215 10.7507C77.8215 11.0568 77.8019 11.3638 77.7815 11.629H70.1088C70.1219 12.0117 70.2122 12.3876 70.3739 12.7332C70.5357 13.0788 70.7654 13.3868 71.0488 13.6379C71.3323 13.889 71.6632 14.0779 72.0213 14.1929C72.3794 14.3078 72.7569 14.3464 73.1302 14.3061C74.434 14.4017 75.7235 13.9785 76.728 13.1252V15.4135C75.6319 16.1442 74.3398 16.5084 73.0314 16.4555C72.3296 16.4836 71.6295 16.3698 70.9711 16.1202C70.3128 15.8708 69.7094 15.4907 69.1959 15.002C68.7045 14.4872 68.3222 13.8747 68.0726 13.2027C67.823 12.5307 67.7117 11.8135 67.7453 11.0958V10.9941L67.7408 11.0004ZM75.3931 9.89761C75.3932 9.60137 75.3295 9.30873 75.2064 9.04043C75.0833 8.77214 74.9038 8.53476 74.6807 8.34512C74.1995 7.90979 73.5747 7.67615 72.9317 7.69107C72.2411 7.67901 71.5674 7.90999 71.0242 8.34512C70.7767 8.52286 70.5711 8.75454 70.4223 9.02338C70.2736 9.29222 70.1853 9.59147 70.1639 9.89942L75.3931 9.89761Z" fill="white"/>
<path d="M79.6131 2.46897H81.9979V5.85374H84.2047V8.08027H81.9997V14.1276H84.0871V16.3142C83.6822 16.4025 83.2686 16.4436 82.8545 16.4368C80.688 16.4368 79.6149 15.2722 79.6149 12.943V2.46897H79.6131Z" fill="white"/>
<path d="M86.5651 13.449C86.2805 13.448 86.0021 13.533 85.7651 13.6935C85.528 13.8539 85.3429 14.0825 85.2334 14.3504C85.1238 14.6181 85.0945 14.9131 85.1494 15.198C85.2042 15.4827 85.3407 15.7445 85.5414 15.95C85.7423 16.1556 85.9983 16.2958 86.2773 16.3528C86.5563 16.4098 86.8456 16.3811 87.1084 16.2704C87.3714 16.1595 87.5962 15.9716 87.7544 15.7303C87.9125 15.4891 87.997 15.2054 87.997 14.9152C87.9974 14.7231 87.9606 14.5326 87.8888 14.355C87.817 14.1773 87.7117 14.0158 87.5787 13.8796C87.4457 13.7435 87.2878 13.6354 87.1139 13.5614C86.9399 13.4876 86.7534 13.4494 86.5651 13.449Z" fill="white"/>
<path d="M97.3517 6.56774V9.02047C96.946 8.61175 96.4649 8.28928 95.9361 8.07174C95.4074 7.8542 94.8415 7.74593 94.2714 7.75322C93.8431 7.73948 93.4167 7.81378 93.0172 7.97173C92.6177 8.12966 92.2535 8.368 91.9463 8.67255C91.6451 8.9715 91.4083 9.33112 91.2508 9.72853C91.0934 10.1259 91.0187 10.5524 91.0317 10.9808C91.0187 11.4093 91.0934 11.8357 91.2508 12.2332C91.4083 12.6305 91.6451 12.9902 91.9463 13.2891C92.2529 13.5933 92.6164 13.8314 93.015 13.9894C93.4137 14.1475 93.8394 14.2223 94.267 14.2093C94.8375 14.2204 95.4045 14.114 95.9338 13.8962C96.4631 13.6785 96.9439 13.354 97.3473 12.9421V15.3949C96.4281 16.1182 95.2879 16.4873 94.128 16.4368C93.4098 16.4576 92.6947 16.331 92.0253 16.0643C91.3561 15.7976 90.7462 15.3963 90.232 14.8843C89.7161 14.3821 89.3096 13.7748 89.039 13.1017C88.7683 12.4288 88.6396 11.7052 88.6611 10.9781C88.6392 10.251 88.7679 9.52731 89.0385 8.85426C89.3092 8.18122 89.7158 7.57391 90.232 7.07191C90.7462 6.55992 91.3561 6.15863 92.0253 5.89193C92.6947 5.62522 93.4098 5.49854 94.128 5.51943C95.2891 5.47839 96.4282 5.84882 97.3517 6.56774Z" fill="white"/>
<path d="M99.1212 16.1498V2.46897H101.486V7.28359C101.772 6.75691 102.198 6.32366 102.715 6.03421C103.233 5.74476 103.819 5.61098 104.408 5.64844C106.714 5.64844 108.065 7.22181 108.065 9.77538V16.1498H105.7V10.1224C105.7 8.71253 104.965 7.83409 103.694 7.83409C103.391 7.82971 103.09 7.88964 102.811 8.01006C102.533 8.13048 102.281 8.30875 102.074 8.53355C101.866 8.75834 101.707 9.02474 101.606 9.31579C101.505 9.60683 101.464 9.91617 101.486 10.2241V16.1498H99.1212Z" fill="white"/>
<path d="M22.8197 7.28278C22.1168 6.18918 21.197 5.25802 20.1196 4.54935C17.6753 2.9847 14.8379 2.17863 11.9526 2.22926C10.9444 2.22786 9.93828 2.31908 8.9462 2.50178C8.3274 1.88896 7.63323 1.3607 6.88107 0.930219C5.88891 0.404398 4.80074 0.0938714 3.68513 0.0182007C2.56952 -0.0574699 1.45063 0.103355 0.398954 0.490545C0.305581 0.525897 0.222213 0.584229 0.15626 0.660359C0.0903061 0.736489 0.0438086 0.828059 0.0208987 0.926934C-0.00201123 1.02581 -0.000623999 1.12892 0.0249371 1.22712C0.0504982 1.32531 0.0994416 1.41555 0.167418 1.4898C1.04192 2.42548 2.49347 4.26956 2.13725 5.94015C0.802394 7.26846 0.0344942 9.07992 0 10.9819C0.0274494 12.8954 0.795756 14.7203 2.13725 16.0581C2.49347 17.7324 1.04548 19.5737 0.170981 20.5094C0.102788 20.5836 0.0536544 20.6737 0.0279659 20.772C0.00227748 20.8702 0.00083294 20.9735 0.0237612 21.0723C0.0466896 21.1713 0.0932773 21.2629 0.159367 21.3391C0.225456 21.4152 0.308992 21.4735 0.402517 21.5086C1.45421 21.8962 2.57319 22.0573 3.68895 21.982C4.80472 21.9066 5.8931 21.5963 6.88553 21.0708C7.63834 20.6401 8.33312 20.1115 8.95244 19.4983C9.94452 19.681 10.9507 19.7722 11.9589 19.7708C14.8441 19.822 17.6815 19.0162 20.1258 17.4516C21.2017 16.7421 22.1197 15.8103 22.8205 14.7164C23.5309 13.6117 23.9092 12.3193 23.9092 10.9982C23.9092 9.67709 23.5309 8.38476 22.8205 7.28006L22.8197 7.28278ZM11.8288 17.6124C10.5686 17.6162 9.31333 17.45 8.09575 17.1183L7.25599 17.9512C6.78992 18.4098 6.26902 18.8066 5.70558 19.1321C5.02095 19.4842 4.27688 19.7 3.51311 19.7681C3.55408 19.6917 3.59148 19.6145 3.63156 19.5383C4.02556 18.9063 4.28916 18.1989 4.40629 17.4596C4.52343 16.7202 4.49161 15.9643 4.3128 15.2378C3.66434 14.7721 3.12881 14.1614 2.74712 13.4523C2.36544 12.7432 2.1477 11.9543 2.11054 11.1462C2.11054 7.5762 6.46164 4.68107 11.8288 4.68107C17.1961 4.68107 21.5507 7.57529 21.5507 11.1462C21.5507 14.7173 17.1969 17.6124 11.8288 17.6124Z" fill="white"/>
<path d="M7.17733 9.65999C6.89284 9.65891 6.61442 9.74398 6.37736 9.90443C6.14029 10.0649 5.95524 10.2935 5.84563 10.5613C5.73603 10.8292 5.7068 11.1241 5.76166 11.4089C5.81651 11.6936 5.95298 11.9554 6.15378 12.1609C6.35457 12.3666 6.61066 12.5067 6.88961 12.5637C7.16857 12.6208 7.45784 12.5921 7.72078 12.4813C7.98373 12.3705 8.20852 12.1825 8.3667 11.9413C8.52487 11.7001 8.60929 11.4164 8.6093 11.1261C8.60965 10.934 8.57289 10.7436 8.50111 10.5659C8.42934 10.3882 8.32396 10.2267 8.191 10.0906C8.05802 9.9544 7.90006 9.84631 7.72614 9.77242C7.55222 9.69855 7.36573 9.66034 7.17733 9.65999Z" fill="white"/>
<path d="M11.7899 9.65999C11.5054 9.65891 11.227 9.74398 10.99 9.90443C10.7529 10.0649 10.5678 10.2935 10.4583 10.5613C10.3487 10.8292 10.3194 11.1241 10.3743 11.4089C10.4291 11.6936 10.5656 11.9554 10.7664 12.1609C10.9672 12.3666 11.2232 12.5067 11.5023 12.5637C11.7812 12.6208 12.0705 12.5921 12.3334 12.4813C12.5964 12.3705 12.8212 12.1825 12.9793 11.9413C13.1375 11.7001 13.2219 11.4164 13.2219 11.1261C13.2223 10.934 13.1855 10.7436 13.1137 10.5659C13.042 10.3882 12.9366 10.2267 12.8036 10.0906C12.6706 9.9544 12.5127 9.84631 12.3388 9.77242C12.1648 9.69855 11.9784 9.66034 11.7899 9.65999Z" fill="white"/>
<path d="M16.3993 9.66C16.1147 9.65855 15.8361 9.74332 15.5989 9.90355C15.3615 10.0638 15.1762 10.2923 15.0663 10.56C14.9564 10.8279 14.9269 11.1229 14.9816 11.4077C15.0362 11.6926 15.1726 11.9545 15.3733 12.1604C15.574 12.3661 15.8301 12.5065 16.1091 12.5636C16.3881 12.6208 16.6775 12.5922 16.9406 12.4815C17.2036 12.3707 17.4285 12.1828 17.5867 11.9415C17.745 11.7003 17.8295 11.4165 17.8295 11.1262C17.8302 10.7384 17.68 10.3661 17.4118 10.0912C17.1436 9.81628 16.7794 9.66119 16.3993 9.66Z" fill="white"/>
</svg>
