<svg width="119" height="32" viewBox="0 0 119 32" fill="none" xmlns="http://www.w3.org/2000/svg">
<path d="M1.77028 7.70367C1.01604 9.12743 1.00745 10.5405 1.00745 10.5999L2.22852 10.6013C2.22859 10.5893 2.24222 9.38159 2.87489 8.21082C3.31134 7.40327 3.93099 6.8096 4.72693 6.43249L4.22638 5.35046C2.96246 5.93906 2.21169 6.87091 1.77028 7.70367Z" fill="white"/>
<path d="M11.4867 8.21082C12.1194 9.38159 12.133 10.5893 12.1331 10.6013L12.7436 10.5998L13.3542 10.5999C13.3542 10.5405 13.3456 9.12743 12.5913 7.70367C12.1501 6.87091 11.3992 5.93906 10.1353 5.35046L9.63474 6.43249C10.4308 6.8096 11.0503 7.40327 11.4867 8.21082Z" fill="white"/>
<path d="M3.9307 8.8349C3.48506 9.70003 3.47995 10.5636 3.47995 10.5999L4.70103 10.6024C4.70108 10.596 4.71071 9.94979 5.03947 9.33343C5.21214 9.00949 5.43734 8.75668 5.71673 8.57159L5.21085 7.47821C4.5691 7.8433 4.17302 8.36451 3.9307 8.8349Z" fill="white"/>
<path d="M9.32234 9.33343C9.65111 9.94979 9.66072 10.596 9.66072 10.6024L10.2713 10.5999H10.8818C10.8818 10.5636 10.8767 9.70003 10.431 8.8349C10.1889 8.36451 9.79279 7.8433 9.15097 7.47821L8.64515 8.57159C8.92447 8.75668 9.14959 9.00949 9.32234 9.33343Z" fill="white"/>
<path d="M1 11.8072V12.9925H5.94465V17.1999L7.18092 17.7999L8.41704 17.1999V12.9925H13.3615V11.8072H1Z" fill="white"/>
<path d="M5.94461 10.3001C5.94461 10.9628 6.49811 11.4999 7.18088 11.4999C7.86358 11.4999 8.417 10.9628 8.417 10.3001C8.417 9.63728 7.86358 9.09999 7.18088 9.09999C6.49811 9.09999 5.94461 9.63728 5.94461 10.3001Z" fill="white"/>
<path d="M2.23613 18.2499V15.3999H4.14747L4.70267 14.2H1V22.2032L2.82895 18.2499H2.23613Z" fill="white"/>
<path d="M12.1255 15.3999V18.2499H11.5328L13.3617 22.2032V14.2H9.65905L10.2142 15.3999H12.1255Z" fill="white"/>
<path d="M5.80464 20.6425L3.51289 25.5965L7.18093 28L10.8484 25.5965L8.55647 20.6425H5.80464Z" fill="white"/>
<path d="M10.1942 18.25H4.16755L1.40705 24.2166L2.48564 24.9235L5.01445 19.4573H9.34658L11.8757 24.9237L12.9546 24.2166L10.1942 18.25Z" fill="white"/>
<path d="M7.18288 4L5.35149 4.889L6.88554 8.2047C6.98105 8.1974 7.0789 8.19268 7.18099 8.19268C7.28298 8.19268 7.3809 8.1974 7.47644 8.2047L9.03378 4.83836L7.18288 4Z" fill="white"/>
<path d="M25.7269 15.1027H20.727V10.7494H19.332V21.25H20.727V16.4914H25.7269V21.25H27.1214V10.7494H25.7269V15.1027Z" fill="white"/>
<path d="M30.8098 15.8309C31.1205 15.6207 31.4936 15.5156 31.9294 15.5156C32.3452 15.5156 32.7098 15.6207 33.0233 15.8309C33.3365 16.041 33.5776 16.32 33.7464 16.6679C33.8309 16.8421 33.8943 17.0234 33.9367 17.212H29.9253C29.9648 17.0211 30.0247 16.8383 30.1048 16.6641C30.2641 16.3187 30.4988 16.041 30.8098 15.8309ZM33.7207 14.6825C33.1823 14.3625 32.585 14.2022 31.9294 14.2022C31.2589 14.2022 30.6556 14.3609 30.1197 14.6786C29.5835 14.9965 29.1652 15.4292 28.8643 15.9774C28.5631 16.5251 28.4127 17.1321 28.4127 17.7973C28.4127 18.5281 28.5853 19.1662 28.9305 19.7113C29.2754 20.257 29.7403 20.6749 30.3253 20.9649C30.9099 21.2549 31.555 21.4001 32.2597 21.4001C32.705 21.4001 33.1212 21.3502 33.5079 21.25C33.8943 21.1502 34.2515 20.9976 34.5796 20.7922L33.9263 19.6438C33.6913 19.774 33.4306 19.8804 33.1443 19.9626C32.858 20.0457 32.5777 20.0866 32.3038 20.0866C31.868 20.0866 31.4642 19.9965 31.0927 19.8166C30.7202 19.6364 30.4228 19.3748 30.2002 19.0321C30.0922 18.8653 30.0111 18.6837 29.9557 18.488H35.3945C35.4142 18.3781 35.429 18.264 35.4389 18.1463C35.4484 18.0288 35.4534 17.9127 35.4534 17.7973C35.4534 17.1369 35.2992 16.5328 34.9907 15.9846C34.6826 15.4369 34.2591 15.0028 33.7207 14.6825Z" fill="white"/>
<path d="M37.995 11.1359C37.843 11.0485 37.6767 11.0046 37.4959 11.0046C37.3144 11.0046 37.1469 11.0485 36.9926 11.1359C36.8384 11.2235 36.7158 11.3452 36.6256 11.5C36.535 11.6553 36.4897 11.8302 36.4897 12.0255C36.4897 12.2157 36.535 12.3896 36.6256 12.5468C36.7158 12.7048 36.8384 12.8285 36.9926 12.9185C37.1469 13.0086 37.3144 13.0537 37.4959 13.0537C37.6767 13.0537 37.843 13.0086 37.995 12.9185C38.1464 12.8285 38.2677 12.7048 38.3583 12.5468C38.4489 12.3896 38.4941 12.2157 38.4941 12.0255C38.4941 11.8302 38.4489 11.6553 38.3583 11.5C38.2677 11.3452 38.1464 11.2235 37.995 11.1359Z" fill="white"/>
<path d="M36.7909 21.25H38.1857V14.3522H36.7909V21.25Z" fill="white"/>
<path d="M50.0838 14.6073C49.5942 14.3373 49.039 14.2022 48.4173 14.2022C48.0553 14.2022 47.7003 14.2649 47.3528 14.3898C47.0054 14.515 46.6884 14.6762 46.4021 14.8738C46.1715 15.033 45.9732 15.1984 45.8048 15.3688C45.5808 15.0498 45.3126 14.7925 44.9924 14.6073C44.5249 14.3373 43.9827 14.2022 43.3661 14.2022C42.9892 14.2022 42.643 14.2472 42.3273 14.3373C42.0115 14.4272 41.723 14.5637 41.4611 14.7464C41.3895 14.7964 41.3202 14.8508 41.2517 14.9084V14.3523H39.8937V21.25H41.2885V16.6201C41.3179 16.5797 41.3449 16.5405 41.3765 16.4989C41.5235 16.3239 41.6923 16.1712 41.8833 16.041C42.0742 15.911 42.2785 15.811 42.4961 15.7408C42.714 15.6709 42.9379 15.6358 43.1678 15.6358C43.5352 15.6358 43.8605 15.702 44.1442 15.8345C44.4283 15.9672 44.6557 16.2025 44.8274 16.54C44.9984 16.8781 45.0842 17.3395 45.0842 17.925V21.25H46.479V17.925C46.479 17.453 46.4318 17.0305 46.3473 16.6474C46.3596 16.6325 46.3729 16.6151 46.3837 16.604C46.5307 16.4238 46.7042 16.26 46.905 16.1125C47.1055 15.9648 47.3256 15.8485 47.5657 15.7634C47.8057 15.6784 48.0477 15.6358 48.2925 15.6358C48.6105 15.6358 48.919 15.7032 49.2176 15.8383C49.516 15.9734 49.7668 16.2112 49.9701 16.5515C50.1731 16.8919 50.2748 17.3498 50.2748 17.925V21.25H51.6699V17.925C51.6699 17.0993 51.528 16.4076 51.2439 15.8495C50.9598 15.2917 50.5735 14.8776 50.0838 14.6073Z" fill="white"/>
<path d="M57.6387 19.7414C57.2988 19.9467 56.9232 20.0491 56.5118 20.0491C56.1204 20.0491 55.7542 19.9452 55.4141 19.7375C55.074 19.5299 54.8038 19.2534 54.603 18.9083C54.4022 18.5629 54.3021 18.1951 54.3021 17.8049C54.3021 17.4098 54.4022 17.0393 54.603 16.694C54.8038 16.3486 55.074 16.0722 55.4141 15.8644C55.7542 15.6569 56.1204 15.553 56.5118 15.553C56.9232 15.553 57.2988 15.6558 57.6387 15.8608C57.9728 16.0626 58.2357 16.3339 58.4279 16.6731V18.9324C58.2357 19.2696 57.9728 19.5399 57.6387 19.7414ZM58.4428 14.9217C58.3928 14.883 58.3481 14.8384 58.2958 14.8026C58.0121 14.6072 57.7045 14.4584 57.3745 14.356C57.0439 14.2534 56.7028 14.2021 56.3503 14.2021C55.709 14.2021 55.1256 14.3632 54.5992 14.6863C54.0728 15.0087 53.6595 15.4456 53.3583 15.9959C53.0575 16.5465 52.907 17.1494 52.907 17.8049C52.907 18.4606 53.0597 19.0634 53.3656 19.6137C53.6719 20.1644 54.0865 20.5996 54.6103 20.9197C55.1338 21.2402 55.7115 21.4 56.343 21.4C56.6999 21.4 57.0439 21.3487 57.3745 21.2464C57.7045 21.1438 58.0121 20.9935 58.2958 20.796C58.3481 20.7597 58.3928 20.7149 58.4428 20.6758V21.25H59.8525V10.7494H58.4428V14.9217Z" fill="white"/>
<path d="M65.9381 19.7414C65.5979 19.9468 65.2223 20.0492 64.8112 20.0492C64.4194 20.0492 64.0536 19.9453 63.7138 19.7376C63.3737 19.53 63.1029 19.2535 62.9024 18.9083C62.7016 18.563 62.6012 18.1952 62.6012 17.805C62.6012 17.4099 62.7016 17.0394 62.9024 16.6941C63.1029 16.3487 63.3737 16.0723 63.7138 15.8645C64.0536 15.657 64.4194 15.5531 64.8112 15.5531C65.2223 15.5531 65.5979 15.6559 65.9381 15.8609C66.2722 16.0627 66.5351 16.334 66.7276 16.6732V18.9325C66.5351 19.2697 66.2722 19.54 65.9381 19.7414ZM66.7422 14.9218C66.6925 14.8831 66.6472 14.8385 66.5955 14.8027C66.3111 14.6073 66.0042 14.4585 65.6736 14.3561C65.3436 14.2535 65.0022 14.2022 64.6497 14.2022C64.0083 14.2022 63.425 14.3633 62.8986 14.6864C62.3725 15.0088 61.9589 15.4457 61.658 15.996C61.3568 16.5466 61.2067 17.1495 61.2067 17.805C61.2067 18.4607 61.3591 19.0635 61.6653 19.6138C61.9713 20.1645 62.3862 20.5997 62.91 20.9198C63.4335 21.2402 64.0112 21.4001 64.6424 21.4001C64.9996 21.4001 65.3436 21.3488 65.6736 21.2465C66.0042 21.1439 66.3111 20.9936 66.5955 20.7961C66.6472 20.7598 66.6925 20.715 66.7422 20.6759V21.25H68.1515V14.3523H66.7422V14.9218Z" fill="white"/>
<path d="M69.8522 21.25H71.247V10.5991H69.8522V21.25Z" fill="white"/>
<path d="M72.9474 21.25H74.3422V10.5991H72.9474V21.25Z" fill="white"/>
<path d="M85.3881 15.0577C85.2116 15.3329 84.9681 15.5408 84.6574 15.6806C84.3464 15.8209 83.993 15.8909 83.5964 15.8909H81.82V12.1379H83.5964C83.9882 12.1379 84.3401 12.2156 84.6536 12.3706C84.9665 12.5258 85.2116 12.7486 85.3881 13.0387C85.5641 13.329 85.6522 13.6691 85.6522 14.0593C85.6522 14.4496 85.5641 14.7826 85.3881 15.0577ZM85.3583 11.1622C84.8344 10.887 84.2473 10.7494 83.5964 10.7494H80.4249V21.25H81.82V17.2794H83.5964C84.252 17.2794 84.8417 17.1494 85.3659 16.8892C85.8894 16.629 86.3005 16.2548 86.5991 15.7672C86.8975 15.2789 87.047 14.7101 87.047 14.0593C87.047 13.404 86.8962 12.826 86.5957 12.3255C86.2942 11.8254 85.8821 11.4376 85.3583 11.1622Z" fill="white"/>
<path d="M92.9349 18.9268C92.7341 19.2649 92.4678 19.53 92.1349 19.7225C91.8021 19.9152 91.447 20.0117 91.0705 20.0117C90.6933 20.0117 90.3398 19.9152 90.0098 19.7225C89.6788 19.53 89.4134 19.2649 89.213 18.9268C89.0122 18.5895 88.9121 18.213 88.9121 17.7973C88.9121 17.3821 89.0122 17.0069 89.213 16.6716C89.4134 16.3365 89.6801 16.0723 90.0133 15.8796C90.3458 15.6871 90.6983 15.5907 91.0705 15.5907C91.447 15.5907 91.8021 15.6871 92.1349 15.8796C92.4678 16.0723 92.7341 16.3365 92.9349 16.6716C93.1357 17.0069 93.2361 17.3821 93.2361 17.7973C93.2361 18.213 93.1357 18.5895 92.9349 18.9268ZM92.8469 14.6714C92.3037 14.3585 91.7115 14.2022 91.0705 14.2022C90.4339 14.2022 89.8442 14.3585 89.301 14.6714C88.7579 14.984 88.3246 15.4141 88.0015 15.9624C87.6785 16.5099 87.517 17.1219 87.517 17.7973C87.517 18.478 87.6772 19.092 87.9977 19.6402C88.3186 20.1879 88.7502 20.6184 89.2937 20.9312C89.8372 21.2438 90.4288 21.4001 91.0705 21.4001C91.7115 21.4001 92.305 21.2438 92.8507 20.9312C93.3967 20.6184 93.8296 20.1879 94.1502 19.6402C94.471 19.092 94.6312 18.478 94.6312 17.7973C94.6312 17.1219 94.4697 16.5099 94.1467 15.9624C93.8236 15.4141 93.3904 14.984 92.8469 14.6714Z" fill="white"/>
<path d="M102.576 19.5612L100.953 14.3522H99.6755L98.0603 19.5311L96.4818 14.3522H95.0576L97.2822 21.25H98.8974L100.314 16.6265L101.731 21.25H103.347L105.571 14.3522H104.154L102.576 19.5612Z" fill="white"/>
<path d="M108.384 15.8309C108.695 15.6207 109.068 15.5156 109.504 15.5156C109.919 15.5156 110.284 15.6207 110.598 15.8309C110.91 16.041 111.152 16.32 111.321 16.6679C111.405 16.8421 111.468 17.0234 111.511 17.212H107.499C107.539 17.0211 107.599 16.8383 107.679 16.6641C107.838 16.3187 108.073 16.041 108.384 15.8309ZM111.295 14.6825C110.756 14.3625 110.159 14.2022 109.504 14.2022C108.833 14.2022 108.23 14.3609 107.694 14.6786C107.158 14.9965 106.739 15.4292 106.439 15.9774C106.137 16.5251 105.987 17.1321 105.987 17.7973C105.987 18.5281 106.159 19.1662 106.504 19.7113C106.85 20.257 107.315 20.6749 107.899 20.9649C108.484 21.2549 109.129 21.4001 109.834 21.4001C110.279 21.4001 110.695 21.3502 111.082 21.25C111.468 21.1502 111.826 20.9976 112.154 20.7922L111.5 19.6438C111.266 19.774 111.005 19.8804 110.719 19.9626C110.433 20.0457 110.152 20.0866 109.878 20.0866C109.442 20.0866 109.038 19.9965 108.667 19.8166C108.295 19.6364 107.997 19.3748 107.775 19.0321C107.666 18.8653 107.585 18.6837 107.53 18.488H112.969C112.988 18.3781 113.003 18.264 113.013 18.1463C113.023 18.0288 113.028 17.9127 113.028 17.7973C113.028 17.1369 112.873 16.5328 112.565 15.9846C112.256 15.4369 111.833 15.0028 111.295 14.6825Z" fill="white"/>
<path d="M116.223 14.7237C116.043 14.829 115.88 14.9497 115.723 15.0771V14.3523H114.387V17.6882C114.386 17.7249 114.38 17.7603 114.38 17.7973H114.387V21.25H115.782V16.8548C115.904 16.6346 116.072 16.4396 116.285 16.2698C116.503 16.0975 116.758 15.9585 117.049 15.8535C117.34 15.7482 117.657 15.6858 117.999 15.6658V14.2022C117.373 14.2222 116.781 14.3961 116.223 14.7237Z" fill="white"/>
</svg>
