<svg width="120" height="32" viewBox="0 0 120 32" fill="none" xmlns="http://www.w3.org/2000/svg">
<g clip-path="url(#clip0_1792_6283)">
<path d="M23.2579 0.0452101H25.4997V2.28706H23.2579V0.0452101Z" fill="white"/>
<path d="M18.7747 0.0452101H21.0165V4.52891H18.7747V0.0452101Z" fill="white"/>
<path d="M14.2908 0.0452101H16.5327V4.52891H14.2908V0.0452101Z" fill="white"/>
<path d="M23.2579 4.52857H25.4997V6.77042H23.2579V4.52857Z" fill="white"/>
<path d="M23.2579 4.52857H25.4997V6.77042H23.2579V4.52857Z" fill="white"/>
<path d="M9.80733 0H12.0492V2.24185H9.80733V0Z" fill="white"/>
<path d="M9.80733 4.52857H12.0492V6.77042H9.80733V4.52857Z" fill="white"/>
<path d="M6.62727 4.81606L8.02499 3.06327L11.5305 5.85873L10.1328 7.61152L6.62727 4.81606Z" fill="white"/>
<path d="M3.83194 8.32093L5.22966 6.56814L8.73521 9.3636L7.33749 11.1164L3.83194 8.32093Z" fill="white"/>
<path d="M12.928 4.1055L14.3258 2.35272L16.0785 3.75045L14.6808 5.50323L12.928 4.1055Z" fill="white"/>
<path d="M12.928 4.1055L14.3258 2.35272L16.0785 3.75045L14.6808 5.50323L12.928 4.1055Z" fill="white"/>
<path d="M1 11.7985L2.39772 10.0457L4.1505 11.4435L2.75278 13.1963L1 11.7985Z" fill="white"/>
<path d="M4.54124 14.6241L5.93896 12.8713L7.69173 14.269L6.29401 16.0218L4.54124 14.6241Z" fill="white"/>
<path d="M2.78159 17.2877L2.28263 15.1021L6.65384 14.1042L7.15281 16.2898L2.78159 17.2877Z" fill="white"/>
<path d="M3.78111 21.658L3.28214 19.4724L7.65336 18.4744L8.15232 20.66L3.78111 21.658Z" fill="white"/>
<path d="M6.15542 11.9183L5.65645 9.73272L7.84206 9.23376L8.34103 11.4194L6.15542 11.9183Z" fill="white"/>
<path d="M6.15542 11.9183L5.65645 9.73272L7.84206 9.23376L8.34103 11.4194L6.15542 11.9183Z" fill="white"/>
<path d="M4.73491 26.0404L4.23594 23.8548L6.42155 23.3558L6.92052 25.5415L4.73491 26.0404Z" fill="white"/>
<path d="M9.14981 25.0327L8.65085 22.8471L10.8365 22.3481L11.3354 24.5338L9.14981 25.0327Z" fill="white"/>
<path d="M10.1366 28.0689L8.11668 27.0964L10.0618 23.0565L12.0817 24.0291L10.1366 28.0689Z" fill="white"/>
<path d="M14.1765 30.014L12.1566 29.0414L14.1017 25.0016L16.1216 25.9741L14.1765 30.014Z" fill="white"/>
<path d="M8.04231 22.0846L6.02241 21.1121L6.99495 19.0922L9.01486 20.0647L8.04231 22.0846Z" fill="white"/>
<path d="M8.04231 22.0846L6.02241 21.1121L6.99495 19.0922L9.01486 20.0647L8.04231 22.0846Z" fill="white"/>
<path d="M18.1968 32L16.1769 31.0275L17.1495 29.0075L19.1694 29.9801L18.1968 32Z" fill="white"/>
<path d="M20.1621 27.9192L18.1422 26.9466L19.1147 24.9267L21.1346 25.8993L20.1621 27.9192Z" fill="white"/>
<path d="M23.1524 29.0461L21.1325 30.0186L19.1874 25.9788L21.2073 25.0062L23.1524 29.0461Z" fill="white"/>
<path d="M27.1917 27.1006L25.1718 28.0732L23.2267 24.0333L25.2466 23.0608L27.1917 27.1006Z" fill="white"/>
<path d="M17.1659 26.9497L15.146 27.9223L14.1735 25.9024L16.1934 24.9298L17.1659 26.9497Z" fill="white"/>
<path d="M17.1659 26.9497L15.146 27.9223L14.1735 25.9024L16.1934 24.9298L17.1659 26.9497Z" fill="white"/>
<path d="M31.2511 25.1941L29.2312 26.1667L28.2587 24.1468L30.2786 23.1742L31.2511 25.1941Z" fill="white"/>
<path d="M29.2863 21.1151L27.2664 22.0876L26.2938 20.0677L28.3137 19.0952L29.2863 21.1151Z" fill="white"/>
<path d="M32.0269 19.4758L31.5279 21.6614L27.1567 20.6635L27.6556 18.4778L32.0269 19.4758Z" fill="white"/>
<path d="M33.0258 15.1037L32.5268 17.2893L28.1556 16.2914L28.6546 14.1058L33.0258 15.1037Z" fill="white"/>
<path d="M26.6576 22.8487L26.1586 25.0344L23.973 24.5354L24.472 22.3498L26.6576 22.8487Z" fill="white"/>
<path d="M26.6576 22.8487L26.1586 25.0344L23.973 24.5354L24.472 22.3498L26.6576 22.8487Z" fill="white"/>
<path d="M34.0672 10.7419L33.5682 12.9275L31.3826 12.4286L31.8816 10.2429L34.0672 10.7419Z" fill="white"/>
<path d="M29.6525 9.73461L29.1536 11.9202L26.968 11.4213L27.4669 9.23564L29.6525 9.73461Z" fill="white"/>
<path d="M30.0781 6.56779L31.4758 8.32058L27.9703 11.116L26.5726 9.36325L30.0781 6.56779Z" fill="white"/>
<path d="M27.2831 3.06254L28.6808 4.81532L25.1753 7.61078L23.7775 5.858L27.2831 3.06254Z" fill="white"/>
<path d="M29.3683 12.8694L30.766 14.6222L29.0132 16.0199L27.6155 14.2671L29.3683 12.8694Z" fill="white"/>
<path d="M29.3683 12.8694L30.766 14.6222L29.0132 16.0199L27.6155 14.2671L29.3683 12.8694Z" fill="white"/>
<path d="M20.9826 2.35237L22.3803 4.10515L20.6276 5.50288L19.2298 3.7501L20.9826 2.35237Z" fill="white"/>
<path d="M42.2788 22.8944V8.03388H45.3383L49.1679 15.3809H49.5842L53.3513 8.03388H56.4316V22.8944H54.6001V10.1568H54.1838L50.3126 17.5871H48.3978L44.5266 10.1568H44.1103V22.8944H42.2788Z" fill="white"/>
<path d="M68.0933 17.0251V17.6287H60.1011C60.1427 20.1054 61.2874 21.6248 63.452 21.6248C64.9089 21.6248 65.8039 21.0004 66.1161 20.0014H67.906C67.5522 21.7913 66.0536 23.165 63.452 23.165C60.1843 23.165 58.3528 20.7506 58.3528 17.5454C58.3528 14.3194 60.226 12.134 63.4104 12.134C66.5115 12.134 68.0517 14.4443 68.0933 17.0251ZM63.3687 13.6742C61.4539 13.6742 60.4549 14.8189 60.2052 16.151H66.2617C66.1369 14.8397 65.1587 13.6742 63.3687 13.6742Z" fill="white"/>
<path d="M75.697 12.4046V14.0697H74.8853C72.8248 14.0697 71.5761 15.3601 71.5761 17.6495V22.8944H69.8069V12.4046H71.5136V13.6742H71.9299C72.4502 13.029 73.4492 12.4046 74.9686 12.4046H75.697Z" fill="white"/>
<path d="M78.9138 9.84461H76.8741V7.76331H78.9138V9.84461ZM78.7681 12.4046V22.8944H76.999V12.4046H78.7681Z" fill="white"/>
<path d="M88.8188 7.76331H90.588V22.8944H88.8813V21.7497H88.465C87.8823 22.4781 86.8624 23.165 85.2182 23.165C82.3044 23.165 80.5561 20.7715 80.5561 17.6495C80.5561 14.5067 82.3044 12.134 85.2182 12.134C86.8624 12.134 87.8198 12.8001 88.4026 13.5493H88.8188V7.76331ZM85.5512 21.6248C87.8823 21.6248 88.8397 19.6892 88.8397 17.6495C88.8397 15.589 87.8823 13.6742 85.5512 13.6742C83.4283 13.6742 82.3252 15.3184 82.3252 17.6495C82.3252 19.9806 83.4283 21.6248 85.5512 21.6248Z" fill="white"/>
<path d="M94.9219 9.84461H92.8823V7.76331H94.9219V9.84461ZM94.7763 12.4046V22.8944H93.0071V12.4046H94.7763Z" fill="white"/>
<path d="M106.596 12.4046V22.8944H104.889V21.7497H104.473C103.89 22.4781 102.871 23.165 101.226 23.165C98.3125 23.165 96.5642 20.7715 96.5642 17.6495C96.5642 14.5275 98.3125 12.134 101.226 12.134C102.871 12.134 103.89 12.8209 104.473 13.5493H104.889V12.4046H106.596ZM104.848 17.6495C104.848 15.6098 103.89 13.6742 101.559 13.6742C99.4364 13.6742 98.3333 15.3184 98.3333 17.6495C98.3333 19.9806 99.4364 21.6248 101.559 21.6248C103.89 21.6248 104.848 19.6892 104.848 17.6495Z" fill="white"/>
<path d="M114.177 12.134C116.799 12.134 118.298 13.7783 118.298 16.2967V22.8944H116.529V16.6088C116.529 14.694 115.613 13.7158 113.844 13.7158C111.971 13.7158 110.743 15.3601 110.743 17.1916V22.8944H108.974V12.4046H110.68V13.5493H111.076C111.617 12.7584 112.741 12.134 114.177 12.134Z" fill="white"/>
<path d="M23.2579 0.0452101H25.4997V2.28706H23.2579V0.0452101Z" stroke="white" stroke-width="0.260163"/>
<path d="M18.7747 0.0452101H21.0165V4.52891H18.7747V0.0452101Z" stroke="white" stroke-width="0.260163"/>
<path d="M14.2908 0.0452101H16.5327V4.52891H14.2908V0.0452101Z" stroke="white" stroke-width="0.260163"/>
<path d="M23.2579 4.52857H25.4997V6.77042H23.2579V4.52857Z" stroke="white" stroke-width="0.260163"/>
<path d="M23.2579 4.52857H25.4997V6.77042H23.2579V4.52857Z" stroke="white" stroke-width="0.260163"/>
<path d="M9.80733 0H12.0492V2.24185H9.80733V0Z" stroke="white" stroke-width="0.260163"/>
<path d="M9.80733 4.52857H12.0492V6.77042H9.80733V4.52857Z" stroke="white" stroke-width="0.260163"/>
<path d="M6.62727 4.81606L8.02499 3.06327L11.5305 5.85873L10.1328 7.61152L6.62727 4.81606Z" stroke="white" stroke-width="0.260163"/>
<path d="M3.83194 8.32093L5.22966 6.56814L8.73521 9.3636L7.33749 11.1164L3.83194 8.32093Z" stroke="white" stroke-width="0.260163"/>
<path d="M12.928 4.1055L14.3258 2.35272L16.0785 3.75045L14.6808 5.50323L12.928 4.1055Z" stroke="white" stroke-width="0.260163"/>
<path d="M12.928 4.1055L14.3258 2.35272L16.0785 3.75045L14.6808 5.50323L12.928 4.1055Z" stroke="white" stroke-width="0.260163"/>
<path d="M1 11.7985L2.39772 10.0457L4.1505 11.4435L2.75278 13.1963L1 11.7985Z" stroke="white" stroke-width="0.260163"/>
<path d="M4.54124 14.6241L5.93896 12.8713L7.69173 14.269L6.29401 16.0218L4.54124 14.6241Z" stroke="white" stroke-width="0.260163"/>
<path d="M2.78159 17.2877L2.28263 15.1021L6.65384 14.1042L7.15281 16.2898L2.78159 17.2877Z" stroke="white" stroke-width="0.260163"/>
<path d="M3.78111 21.658L3.28214 19.4724L7.65336 18.4744L8.15232 20.66L3.78111 21.658Z" stroke="white" stroke-width="0.260163"/>
<path d="M6.15542 11.9183L5.65645 9.73272L7.84206 9.23376L8.34103 11.4194L6.15542 11.9183Z" stroke="white" stroke-width="0.260163"/>
<path d="M6.15542 11.9183L5.65645 9.73272L7.84206 9.23376L8.34103 11.4194L6.15542 11.9183Z" stroke="white" stroke-width="0.260163"/>
<path d="M4.73491 26.0404L4.23594 23.8548L6.42155 23.3558L6.92052 25.5415L4.73491 26.0404Z" stroke="white" stroke-width="0.260163"/>
<path d="M9.14981 25.0327L8.65085 22.8471L10.8365 22.3481L11.3354 24.5338L9.14981 25.0327Z" stroke="white" stroke-width="0.260163"/>
<path d="M10.1366 28.0689L8.11668 27.0964L10.0618 23.0565L12.0817 24.0291L10.1366 28.0689Z" stroke="white" stroke-width="0.260163"/>
<path d="M14.1765 30.014L12.1566 29.0414L14.1017 25.0016L16.1216 25.9741L14.1765 30.014Z" stroke="white" stroke-width="0.260163"/>
<path d="M8.04231 22.0846L6.02241 21.1121L6.99495 19.0922L9.01486 20.0647L8.04231 22.0846Z" stroke="white" stroke-width="0.260163"/>
<path d="M8.04231 22.0846L6.02241 21.1121L6.99495 19.0922L9.01486 20.0647L8.04231 22.0846Z" stroke="white" stroke-width="0.260163"/>
<path d="M18.1968 32L16.1769 31.0275L17.1495 29.0075L19.1694 29.9801L18.1968 32Z" stroke="white" stroke-width="0.260163"/>
<path d="M20.1621 27.9192L18.1422 26.9466L19.1147 24.9267L21.1346 25.8993L20.1621 27.9192Z" stroke="white" stroke-width="0.260163"/>
<path d="M23.1524 29.0461L21.1325 30.0186L19.1874 25.9788L21.2073 25.0062L23.1524 29.0461Z" stroke="white" stroke-width="0.260163"/>
<path d="M27.1917 27.1006L25.1718 28.0732L23.2267 24.0333L25.2466 23.0608L27.1917 27.1006Z" stroke="white" stroke-width="0.260163"/>
<path d="M17.1659 26.9497L15.146 27.9223L14.1735 25.9024L16.1934 24.9298L17.1659 26.9497Z" stroke="white" stroke-width="0.260163"/>
<path d="M17.1659 26.9497L15.146 27.9223L14.1735 25.9024L16.1934 24.9298L17.1659 26.9497Z" stroke="white" stroke-width="0.260163"/>
<path d="M31.2511 25.1941L29.2312 26.1667L28.2587 24.1468L30.2786 23.1742L31.2511 25.1941Z" stroke="white" stroke-width="0.260163"/>
<path d="M29.2863 21.1151L27.2664 22.0876L26.2938 20.0677L28.3137 19.0952L29.2863 21.1151Z" stroke="white" stroke-width="0.260163"/>
<path d="M32.0269 19.4758L31.5279 21.6614L27.1567 20.6635L27.6556 18.4778L32.0269 19.4758Z" stroke="white" stroke-width="0.260163"/>
<path d="M33.0258 15.1037L32.5268 17.2893L28.1556 16.2914L28.6546 14.1058L33.0258 15.1037Z" stroke="white" stroke-width="0.260163"/>
<path d="M26.6576 22.8487L26.1586 25.0344L23.973 24.5354L24.472 22.3498L26.6576 22.8487Z" stroke="white" stroke-width="0.260163"/>
<path d="M26.6576 22.8487L26.1586 25.0344L23.973 24.5354L24.472 22.3498L26.6576 22.8487Z" stroke="white" stroke-width="0.260163"/>
<path d="M34.0672 10.7419L33.5682 12.9275L31.3826 12.4286L31.8816 10.2429L34.0672 10.7419Z" stroke="white" stroke-width="0.260163"/>
<path d="M29.6525 9.73461L29.1536 11.9202L26.968 11.4213L27.4669 9.23564L29.6525 9.73461Z" stroke="white" stroke-width="0.260163"/>
<path d="M30.0781 6.56779L31.4758 8.32058L27.9703 11.116L26.5726 9.36325L30.0781 6.56779Z" stroke="white" stroke-width="0.260163"/>
<path d="M27.2831 3.06254L28.6808 4.81532L25.1753 7.61078L23.7775 5.858L27.2831 3.06254Z" stroke="white" stroke-width="0.260163"/>
<path d="M29.3683 12.8694L30.766 14.6222L29.0132 16.0199L27.6155 14.2671L29.3683 12.8694Z" stroke="white" stroke-width="0.260163"/>
<path d="M29.3683 12.8694L30.766 14.6222L29.0132 16.0199L27.6155 14.2671L29.3683 12.8694Z" stroke="white" stroke-width="0.260163"/>
<path d="M20.9826 2.35237L22.3803 4.10515L20.6276 5.50288L19.2298 3.7501L20.9826 2.35237Z" stroke="white" stroke-width="0.260163"/>
<path d="M42.2788 22.8944V8.03388H45.3383L49.1679 15.3809H49.5842L53.3513 8.03388H56.4316V22.8944H54.6001V10.1568H54.1838L50.3126 17.5871H48.3978L44.5266 10.1568H44.1103V22.8944H42.2788Z" stroke="white" stroke-width="0.260163"/>
<path d="M68.0933 17.0251V17.6287H60.1011C60.1427 20.1054 61.2874 21.6248 63.452 21.6248C64.9089 21.6248 65.8039 21.0004 66.1161 20.0014H67.906C67.5522 21.7913 66.0536 23.165 63.452 23.165C60.1843 23.165 58.3528 20.7506 58.3528 17.5454C58.3528 14.3194 60.226 12.134 63.4104 12.134C66.5115 12.134 68.0517 14.4443 68.0933 17.0251ZM63.3687 13.6742C61.4539 13.6742 60.4549 14.8189 60.2052 16.151H66.2617C66.1369 14.8397 65.1587 13.6742 63.3687 13.6742Z" stroke="white" stroke-width="0.260163"/>
<path d="M75.697 12.4046V14.0697H74.8853C72.8248 14.0697 71.5761 15.3601 71.5761 17.6495V22.8944H69.8069V12.4046H71.5136V13.6742H71.9299C72.4502 13.029 73.4492 12.4046 74.9686 12.4046H75.697Z" stroke="white" stroke-width="0.260163"/>
<path d="M78.9138 9.84461H76.8741V7.76331H78.9138V9.84461ZM78.7681 12.4046V22.8944H76.999V12.4046H78.7681Z" stroke="white" stroke-width="0.260163"/>
<path d="M88.8188 7.76331H90.588V22.8944H88.8813V21.7497H88.465C87.8823 22.4781 86.8624 23.165 85.2182 23.165C82.3044 23.165 80.5561 20.7715 80.5561 17.6495C80.5561 14.5067 82.3044 12.134 85.2182 12.134C86.8624 12.134 87.8198 12.8001 88.4026 13.5493H88.8188V7.76331ZM85.5512 21.6248C87.8823 21.6248 88.8397 19.6892 88.8397 17.6495C88.8397 15.589 87.8823 13.6742 85.5512 13.6742C83.4283 13.6742 82.3252 15.3184 82.3252 17.6495C82.3252 19.9806 83.4283 21.6248 85.5512 21.6248Z" stroke="white" stroke-width="0.260163"/>
<path d="M94.9219 9.84461H92.8823V7.76331H94.9219V9.84461ZM94.7763 12.4046V22.8944H93.0071V12.4046H94.7763Z" stroke="white" stroke-width="0.260163"/>
<path d="M106.596 12.4046V22.8944H104.889V21.7497H104.473C103.89 22.4781 102.871 23.165 101.226 23.165C98.3125 23.165 96.5642 20.7715 96.5642 17.6495C96.5642 14.5275 98.3125 12.134 101.226 12.134C102.871 12.134 103.89 12.8209 104.473 13.5493H104.889V12.4046H106.596ZM104.848 17.6495C104.848 15.6098 103.89 13.6742 101.559 13.6742C99.4364 13.6742 98.3333 15.3184 98.3333 17.6495C98.3333 19.9806 99.4364 21.6248 101.559 21.6248C103.89 21.6248 104.848 19.6892 104.848 17.6495Z" stroke="white" stroke-width="0.260163"/>
<path d="M114.177 12.134C116.799 12.134 118.298 13.7783 118.298 16.2967V22.8944H116.529V16.6088C116.529 14.694 115.613 13.7158 113.844 13.7158C111.971 13.7158 110.743 15.3601 110.743 17.1916V22.8944H108.974V12.4046H110.68V13.5493H111.076C111.617 12.7584 112.741 12.134 114.177 12.134Z" stroke="white" stroke-width="0.260163"/>
</g>
<defs>
<clipPath id="clip0_1792_6283">
<rect width="120" height="32" fill="white"/>
</clipPath>
</defs>
</svg>
